<svg width="7" height="7" viewBox="0 0 7 7" fill="none" xmlns="http://www.w3.org/2000/svg">
<path d="M6.84471 0.160599C6.63766 -0.0464542 6.30319 -0.0464542 6.09613 0.160599L3.5 2.75142L0.903868 0.15529C0.696815 -0.0517634 0.362344 -0.0517634 0.15529 0.15529C-0.0517634 0.362344 -0.0517634 0.696815 0.15529 0.903868L2.75142 3.5L0.15529 6.09613C-0.0517634 6.30319 -0.0517634 6.63766 0.15529 6.84471C0.362344 7.05176 0.696815 7.05176 0.903868 6.84471L3.5 4.24858L6.09613 6.84471C6.30319 7.05176 6.63766 7.05176 6.84471 6.84471C7.05176 6.63766 7.05176 6.30319 6.84471 6.09613L4.24858 3.5L6.84471 0.903868C7.04645 0.702124 7.04645 0.362344 6.84471 0.160599Z" fill="#696969"/>
</svg>
